Coordinates
version=1
nRows=7
nColumns=40
inDegrees=yes

Units are S.I. units (second, meters, Newtons, ...)
Angles are in degrees.

endheader
time	pelvis_tilt	pelvis_list	pelvis_rotation	pelvis_tx	pelvis_ty	pelvis_tz	hip_flexion_r	hip_adduction_r	hip_rotation_r	knee_angle_r	knee_angle_r_beta	ankle_angle_r	subtalar_angle_r	mtp_angle_r	hip_flexion_l	hip_adduction_l	hip_rotation_l	knee_angle_l	knee_angle_l_beta	ankle_angle_l	subtalar_angle_l	mtp_angle_l	lumbar_extension	lumbar_bending	lumbar_rotation	arm_flex_r	arm_add_r	arm_rot_r	elbow_flex_r	pro_sup_r	wrist_flex_r	wrist_dev_r	arm_flex_l	arm_add_l	arm_rot_l	elbow_flex_l	pro_sup_l	wrist_flex_l	wrist_dev_l
     51.53314286	     -3.34647999	     -4.84392841	     -1.14668943	      1.04800863	      0.93456472	      0.41741672	     27.70570846	     -5.58051961	     -7.65580017	     49.94850020	     49.94850020	      3.95561674	    -11.20987740	     -1.75095172	     13.10761166	     -6.80664531	     -9.97898874	     21.95345976	     21.95345976	     14.27598437	     -8.52033709	      0.28755231	    -10.26111846	      5.42427431	      1.49445058	      3.46212164	    -13.74328450	     -0.54951025	     43.71078014	     46.13025637	      0.00000000	      0.00000000	     15.95062279	    -17.87179769	      5.01432177	     61.12570712	     46.30475139	      0.00000000	      0.00000000
     51.54628571	     -3.62684997	     -5.06389995	     -1.27722162	      1.04671422	      0.93435521	      0.41822841	     27.87718446	     -5.26289050	     -7.67601714	     46.95249879	     46.95249879	      4.01590841	    -10.77237456	     -1.50954532	     13.00439091	     -7.09002744	    -10.02282613	     21.76143249	     21.76143249	     14.40652213	     -8.48081364	      0.14454486	    -10.18906645	      5.63331684	      1.52229573	      2.58849990	    -14.02247010	     -0.57458469	     42.34511249	     46.17290104	      0.00000000	      0.00000000	     16.32655069	    -17.96464123	      4.84495016	     61.59941537	     46.33423994	      0.00000000	      0.00000000
     51.55942857	     -3.89569305	     -5.22937663	     -1.41444622	      1.04552580	      0.93408155	      0.41920986	     27.90983583	     -4.95466811	     -7.59487072	     43.70242901	     43.70242901	      3.85439850	    -10.33102259	     -1.82077224	     12.86529764	     -7.37299334	    -10.29304060	     21.55007944	     21.55007944	     14.46313414	     -8.16914174	     -0.40390851	    -10.07437042	      5.71906174	      1.48540604	      2.67619341	    -13.99765788	     -0.82641944	     38.49760252	     46.31327482	      0.00000000	      0.00000000	     16.57103376	    -18.04008421	      4.69354966	     62.24176184	     46.38525939	      0.00000000	      0.00000000
     51.57257143	     -4.26193424	     -5.35609628	     -1.52496305	      1.04431063	      0.93361853	      0.42023934	     27.97371122	     -4.70032254	     -7.52012588	     40.33967207	     40.33967207	      3.85343725	     -9.49450469	     -1.44283649	     12.87105425	     -7.56241080	    -10.28390697	     21.38460895	     21.38460895	     14.59398459	     -8.22127382	     -0.49438391	     -9.92347495	      5.85894853	      1.24436188	      1.85308204	    -14.18240160	     -0.89886148	     37.81592044	     46.33474227	      0.00000000	      0.00000000	     16.70630636	    -18.32044759	      4.55146744	     62.44747286	     46.40439856	      0.00000000	      0.00000000
     51.58571429	     -4.48810624	     -5.47178752	     -1.61495567	      1.04327127	      0.93335987	      0.42131751	     27.73107855	     -4.45824497	     -7.51460539	     36.76390753	     36.76390753	      3.71637128	     -8.36754539	     -1.06801629	     12.68806446	     -7.74986990	    -10.35376316	     21.17559780	     21.17559780	     14.70621910	     -8.15847622	     -0.64296590	     -9.94191024	      5.97228778	      1.20469242	      1.11205014	    -14.46296187	     -1.01670421	     36.79908151	     46.37154610	      0.00000000	      0.00000000	     16.87120333	    -18.35090932	      4.45635364	     62.80608982	     46.42440469	      0.00000000	      0.00000000
     51.59885714	     -4.73496074	     -5.49345670	     -1.72573767	      1.04245473	      0.93298122	      0.42254377	     27.43893013	     -4.28969358	     -7.50531590	     33.16191988	     33.16191988	      3.50706856	     -6.98006584	     -0.69018318	     12.47439654	     -7.84980165	    -10.49491267	     20.91252371	     20.91252371	     14.83242057	     -8.01621501	     -0.84165209	     -9.87844766	      5.98024756	      1.17217149	      0.41766368	    -14.65926960	     -1.17532608	     35.73862291	     46.41274094	      0.00000000	      0.00000000	     16.98559111	    -18.40459324	      4.37883440	     63.11892586	     46.44263351	      0.00000000	      0.00000000
     51.61200000	     -4.93571981	     -5.45150393	     -1.82260500	      1.04179811	      0.93263590	      0.42382877	     27.00294565	     -4.18395728	     -7.60440918	     29.53600284	     29.53600284	      3.20300830	     -5.28191939	     -0.28144435	     12.17828142	     -7.88411610	    -10.68123446	     20.60684751	     20.60684751	     14.90403041	     -7.79540823	     -1.08225801	     -9.88219164	      5.97959286	      1.14670303	     -0.18335538	    -14.80145947	     -1.42308524	     34.62356059	     46.46137147	      0.00000000	      0.00000000	     17.03017986	    -18.45813782	      4.31950405	     63.38436966	     46.46000094	      0.00000000	      0.00000000
